<mxfile host="app.diagrams.net" agent="Mozilla/5.0 (Windows NT 10.0; Win64; x64) AppleWebKit/537.36 (KHTML, like Gecko) Chrome/126.0.0.0 YaBrowser/24.7.0.0 Safari/537.36" version="24.7.12">
  <diagram name="Страница — 1" id="JSer4y4HAmMJHR_Ffxij">
    <mxGraphModel dx="1195" dy="648" grid="1" gridSize="10" guides="1" tooltips="1" connect="1" arrows="1" fold="1" page="1" pageScale="1" pageWidth="827" pageHeight="1169" math="0" shadow="0">
      <root>
        <mxCell id="0" />
        <mxCell id="1" parent="0" />
        <mxCell id="vkrIR3gnzPrKSDZMQm9L-24" style="edgeStyle=orthogonalEdgeStyle;rounded=0;orthogonalLoop=1;jettySize=auto;html=1;entryX=0.5;entryY=1;entryDx=0;entryDy=0;" edge="1" parent="1" source="vkrIR3gnzPrKSDZMQm9L-1" target="vkrIR3gnzPrKSDZMQm9L-3">
          <mxGeometry relative="1" as="geometry" />
        </mxCell>
        <mxCell id="vkrIR3gnzPrKSDZMQm9L-26" style="edgeStyle=orthogonalEdgeStyle;rounded=0;orthogonalLoop=1;jettySize=auto;html=1;entryX=0.5;entryY=1;entryDx=0;entryDy=0;" edge="1" parent="1" source="vkrIR3gnzPrKSDZMQm9L-1" target="vkrIR3gnzPrKSDZMQm9L-5">
          <mxGeometry relative="1" as="geometry" />
        </mxCell>
        <mxCell id="vkrIR3gnzPrKSDZMQm9L-28" style="edgeStyle=orthogonalEdgeStyle;rounded=0;orthogonalLoop=1;jettySize=auto;html=1;entryX=0.5;entryY=1;entryDx=0;entryDy=0;" edge="1" parent="1" source="vkrIR3gnzPrKSDZMQm9L-1" target="vkrIR3gnzPrKSDZMQm9L-7">
          <mxGeometry relative="1" as="geometry" />
        </mxCell>
        <mxCell id="vkrIR3gnzPrKSDZMQm9L-29" style="edgeStyle=orthogonalEdgeStyle;rounded=0;orthogonalLoop=1;jettySize=auto;html=1;entryX=0.5;entryY=1;entryDx=0;entryDy=0;" edge="1" parent="1" source="vkrIR3gnzPrKSDZMQm9L-1" target="vkrIR3gnzPrKSDZMQm9L-8">
          <mxGeometry relative="1" as="geometry" />
        </mxCell>
        <mxCell id="vkrIR3gnzPrKSDZMQm9L-31" style="edgeStyle=orthogonalEdgeStyle;rounded=0;orthogonalLoop=1;jettySize=auto;html=1;entryX=1;entryY=0;entryDx=0;entryDy=0;" edge="1" parent="1" source="vkrIR3gnzPrKSDZMQm9L-1" target="vkrIR3gnzPrKSDZMQm9L-30">
          <mxGeometry relative="1" as="geometry" />
        </mxCell>
        <mxCell id="vkrIR3gnzPrKSDZMQm9L-1" value="Сотрудники" style="rounded=0;whiteSpace=wrap;html=1;" vertex="1" parent="1">
          <mxGeometry x="354" y="360" width="120" height="60" as="geometry" />
        </mxCell>
        <mxCell id="vkrIR3gnzPrKSDZMQm9L-3" value="Имя" style="ellipse;whiteSpace=wrap;html=1;" vertex="1" parent="1">
          <mxGeometry x="130" y="160" width="70" height="40" as="geometry" />
        </mxCell>
        <mxCell id="vkrIR3gnzPrKSDZMQm9L-4" value="Фамилия" style="ellipse;whiteSpace=wrap;html=1;" vertex="1" parent="1">
          <mxGeometry x="210" y="160" width="70" height="40" as="geometry" />
        </mxCell>
        <mxCell id="vkrIR3gnzPrKSDZMQm9L-5" value="Отчество" style="ellipse;whiteSpace=wrap;html=1;" vertex="1" parent="1">
          <mxGeometry x="293.5" y="160" width="70" height="40" as="geometry" />
        </mxCell>
        <mxCell id="vkrIR3gnzPrKSDZMQm9L-6" value="Пол" style="ellipse;whiteSpace=wrap;html=1;" vertex="1" parent="1">
          <mxGeometry x="370" y="160" width="70" height="40" as="geometry" />
        </mxCell>
        <mxCell id="vkrIR3gnzPrKSDZMQm9L-7" value="&lt;p style=&quot;line-height: 100%; font-size: 10px;&quot;&gt;Дата рождения&lt;/p&gt;" style="ellipse;whiteSpace=wrap;html=1;fontSize=10;" vertex="1" parent="1">
          <mxGeometry x="450" y="160" width="70" height="40" as="geometry" />
        </mxCell>
        <mxCell id="vkrIR3gnzPrKSDZMQm9L-8" value="&lt;p style=&quot;line-height: 100%; font-size: 10px;&quot;&gt;Адрес прописки&lt;/p&gt;" style="ellipse;whiteSpace=wrap;html=1;fontSize=10;" vertex="1" parent="1">
          <mxGeometry x="530" y="160" width="70" height="40" as="geometry" />
        </mxCell>
        <mxCell id="vkrIR3gnzPrKSDZMQm9L-23" style="edgeStyle=orthogonalEdgeStyle;rounded=0;orthogonalLoop=1;jettySize=auto;html=1;entryX=0.5;entryY=0;entryDx=0;entryDy=0;" edge="1" parent="1" source="vkrIR3gnzPrKSDZMQm9L-18" target="vkrIR3gnzPrKSDZMQm9L-19">
          <mxGeometry relative="1" as="geometry" />
        </mxCell>
        <mxCell id="vkrIR3gnzPrKSDZMQm9L-35" style="edgeStyle=orthogonalEdgeStyle;rounded=0;orthogonalLoop=1;jettySize=auto;html=1;entryX=1;entryY=1;entryDx=0;entryDy=0;" edge="1" parent="1" source="vkrIR3gnzPrKSDZMQm9L-18" target="vkrIR3gnzPrKSDZMQm9L-34">
          <mxGeometry relative="1" as="geometry" />
        </mxCell>
        <mxCell id="vkrIR3gnzPrKSDZMQm9L-46" style="edgeStyle=orthogonalEdgeStyle;rounded=0;orthogonalLoop=1;jettySize=auto;html=1;entryX=0.5;entryY=0;entryDx=0;entryDy=0;" edge="1" parent="1" source="vkrIR3gnzPrKSDZMQm9L-18" target="vkrIR3gnzPrKSDZMQm9L-43">
          <mxGeometry relative="1" as="geometry" />
        </mxCell>
        <mxCell id="vkrIR3gnzPrKSDZMQm9L-18" value="Подразделения" style="rounded=0;whiteSpace=wrap;html=1;" vertex="1" parent="1">
          <mxGeometry x="570" y="490" width="120" height="60" as="geometry" />
        </mxCell>
        <mxCell id="vkrIR3gnzPrKSDZMQm9L-19" value="название" style="ellipse;whiteSpace=wrap;html=1;" vertex="1" parent="1">
          <mxGeometry x="550" y="580" width="70" height="40" as="geometry" />
        </mxCell>
        <mxCell id="vkrIR3gnzPrKSDZMQm9L-22" style="edgeStyle=orthogonalEdgeStyle;rounded=0;orthogonalLoop=1;jettySize=auto;html=1;entryX=0.5;entryY=0;entryDx=0;entryDy=0;" edge="1" parent="1" source="vkrIR3gnzPrKSDZMQm9L-20" target="vkrIR3gnzPrKSDZMQm9L-21">
          <mxGeometry relative="1" as="geometry" />
        </mxCell>
        <mxCell id="vkrIR3gnzPrKSDZMQm9L-42" style="edgeStyle=orthogonalEdgeStyle;rounded=0;orthogonalLoop=1;jettySize=auto;html=1;" edge="1" parent="1" source="vkrIR3gnzPrKSDZMQm9L-20" target="vkrIR3gnzPrKSDZMQm9L-40">
          <mxGeometry relative="1" as="geometry" />
        </mxCell>
        <mxCell id="vkrIR3gnzPrKSDZMQm9L-20" value="Дисциплины" style="rounded=0;whiteSpace=wrap;html=1;" vertex="1" parent="1">
          <mxGeometry x="130" y="530" width="120" height="60" as="geometry" />
        </mxCell>
        <mxCell id="vkrIR3gnzPrKSDZMQm9L-21" value="название" style="ellipse;whiteSpace=wrap;html=1;" vertex="1" parent="1">
          <mxGeometry x="112.5" y="620" width="70" height="40" as="geometry" />
        </mxCell>
        <mxCell id="vkrIR3gnzPrKSDZMQm9L-25" style="edgeStyle=orthogonalEdgeStyle;rounded=0;orthogonalLoop=1;jettySize=auto;html=1;entryX=0.571;entryY=1;entryDx=0;entryDy=0;entryPerimeter=0;" edge="1" parent="1" source="vkrIR3gnzPrKSDZMQm9L-1" target="vkrIR3gnzPrKSDZMQm9L-4">
          <mxGeometry relative="1" as="geometry" />
        </mxCell>
        <mxCell id="vkrIR3gnzPrKSDZMQm9L-27" style="edgeStyle=orthogonalEdgeStyle;rounded=0;orthogonalLoop=1;jettySize=auto;html=1;entryX=0.568;entryY=1.058;entryDx=0;entryDy=0;entryPerimeter=0;" edge="1" parent="1" source="vkrIR3gnzPrKSDZMQm9L-1" target="vkrIR3gnzPrKSDZMQm9L-6">
          <mxGeometry relative="1" as="geometry">
            <Array as="points">
              <mxPoint x="410" y="280" />
              <mxPoint x="410" y="280" />
            </Array>
          </mxGeometry>
        </mxCell>
        <mxCell id="vkrIR3gnzPrKSDZMQm9L-32" style="edgeStyle=orthogonalEdgeStyle;rounded=0;orthogonalLoop=1;jettySize=auto;html=1;" edge="1" parent="1" source="vkrIR3gnzPrKSDZMQm9L-30" target="vkrIR3gnzPrKSDZMQm9L-20">
          <mxGeometry relative="1" as="geometry" />
        </mxCell>
        <mxCell id="vkrIR3gnzPrKSDZMQm9L-30" value="Читает" style="rhombus;whiteSpace=wrap;html=1;" vertex="1" parent="1">
          <mxGeometry x="320" y="440" width="80" height="80" as="geometry" />
        </mxCell>
        <mxCell id="vkrIR3gnzPrKSDZMQm9L-39" style="edgeStyle=orthogonalEdgeStyle;rounded=0;orthogonalLoop=1;jettySize=auto;html=1;entryX=1;entryY=1;entryDx=0;entryDy=0;" edge="1" parent="1" source="vkrIR3gnzPrKSDZMQm9L-34" target="vkrIR3gnzPrKSDZMQm9L-1">
          <mxGeometry relative="1" as="geometry" />
        </mxCell>
        <mxCell id="vkrIR3gnzPrKSDZMQm9L-34" value="Включает" style="rhombus;whiteSpace=wrap;html=1;" vertex="1" parent="1">
          <mxGeometry x="440" y="460" width="80" height="80" as="geometry" />
        </mxCell>
        <mxCell id="vkrIR3gnzPrKSDZMQm9L-40" value="&lt;p style=&quot;line-height: 100%;&quot;&gt;&lt;font style=&quot;font-size: 9px;&quot;&gt;код дисциплины&lt;/font&gt;&lt;/p&gt;" style="ellipse;whiteSpace=wrap;html=1;" vertex="1" parent="1">
          <mxGeometry x="197.5" y="620" width="70" height="40" as="geometry" />
        </mxCell>
        <mxCell id="vkrIR3gnzPrKSDZMQm9L-43" value="&lt;p style=&quot;line-height: 100%; font-size: 9px;&quot;&gt;код подразделения&lt;/p&gt;" style="ellipse;whiteSpace=wrap;html=1;" vertex="1" parent="1">
          <mxGeometry x="640" y="580" width="70" height="40" as="geometry" />
        </mxCell>
        <mxCell id="vkrIR3gnzPrKSDZMQm9L-44" value="&lt;p style=&quot;line-height: 100%; font-size: 10px;&quot;&gt;код сотрудника&lt;/p&gt;" style="ellipse;whiteSpace=wrap;html=1;fontSize=10;" vertex="1" parent="1">
          <mxGeometry x="620" y="160" width="70" height="40" as="geometry" />
        </mxCell>
        <mxCell id="vkrIR3gnzPrKSDZMQm9L-47" style="edgeStyle=orthogonalEdgeStyle;rounded=0;orthogonalLoop=1;jettySize=auto;html=1;entryX=0.501;entryY=1.083;entryDx=0;entryDy=0;entryPerimeter=0;" edge="1" parent="1" source="vkrIR3gnzPrKSDZMQm9L-1" target="vkrIR3gnzPrKSDZMQm9L-44">
          <mxGeometry relative="1" as="geometry" />
        </mxCell>
      </root>
    </mxGraphModel>
  </diagram>
</mxfile>
